<svg version="1.1" id="layer" xmlns="http://www.w3.org/2000/svg" xmlns:xlink="http://www.w3.org/1999/xlink" x="0px" y="0px"
	 viewBox="0 0 652 652" style="enable-background:new 0 0 652 652;" xml:space="preserve">
<style type="text/css">
	.st0{fill:#0063AF;}
	.st1{fill:#FFFFFF;}
</style>
<path class="st0" d="M603.8,339.1c-2.3,3.4-5.6,5.1-9.8,5.1c-4.2,0-7.5-1.7-9.9-5.1c-2.3-3.4-3.5-7.9-3.5-13.7
	c0-5.7,1.2-10.3,3.5-13.6c2.3-3.3,5.6-4.9,9.9-4.9c4.2,0,7.5,1.7,9.8,4.9c2.3,3.3,3.4,7.8,3.4,13.6
	C607.2,331.2,606.1,335.7,603.8,339.1 M623.8,311.3c-1.6-4.2-3.8-7.9-6.6-10.9c-2.8-3-6.2-5.3-10.2-7c-4-1.7-8.3-2.5-13.1-2.5
	c-4.7,0-9,0.8-12.9,2.5c-4,1.7-7.4,4-10.2,7c-2.9,3-5.1,6.6-6.7,10.9c-1.6,4.3-2.4,9-2.4,14.1s0.8,9.9,2.4,14.2
	c1.6,4.3,3.8,8,6.6,11c2.8,3,6.2,5.4,10.2,7.1c4,1.7,8.4,2.5,13.2,2.5c4.9,0,9.4-0.8,13.3-2.5c4-1.7,7.3-4,10.2-7.1
	c2.8-3,5-6.7,6.5-11c1.5-4.3,2.3-9,2.3-14.2S625.4,315.6,623.8,311.3 M553.5,311.5c-1.2-4.2-3.1-7.8-5.5-10.8c-2.4-3-5.4-5.3-9-6.9
	c-3.6-1.6-7.7-2.4-12.4-2.4c-2.6,0-5,0.3-7.3,0.8c-2.2,0.5-4.4,1.2-6.5,2.1v-32.7l-18.6,3v91.8c1.7,0.5,3.6,1,5.7,1.4
	c2.2,0.5,4.4,0.8,6.8,1.2c2.4,0.3,4.8,0.6,7.3,0.8c2.4,0.2,4.8,0.3,7.1,0.3c5.4,0,10.2-0.8,14.5-2.4c4.2-1.6,7.8-3.9,10.7-6.9
	c2.9-3,5.1-6.6,6.7-10.9c1.5-4.2,2.3-9,2.3-14.2C555.4,320.4,554.7,315.7,553.5,311.5 M532.5,338.9c-2.6,3.5-6.4,5.2-11.5,5.2
	c-1.7,0-3.2-0.1-4.6-0.2c-1.4-0.1-2.6-0.3-3.5-0.4v-33.9c1.2-0.8,2.7-1.4,4.6-1.9c1.9-0.5,3.8-0.8,5.7-0.8c8.8,0,13.3,6,13.3,18
	C536.4,330.8,535.1,335.4,532.5,338.9 M427.7,358.4h18.6v-35.9c0-2.4-0.1-4.7-0.3-6.8c-0.2-2.1-0.5-4.1-1.1-6.1
	c1.2-0.8,2.6-1.4,4.4-1.9c1.8-0.5,3.2-0.8,4.2-0.8c3.8,0,6.4,1.3,7.9,3.8c1.5,2.5,2.3,6.7,2.3,12.7v34.9h18.6v-37.1
	c0-4.5-0.4-8.6-1.1-12.2c-0.8-3.7-2.1-6.8-4.1-9.5c-2-2.7-4.7-4.7-8.1-6.2c-3.4-1.5-7.7-2.2-12.9-2.2c-2.9,0-6.1,0.5-9.6,1.6
	c-3.5,1.1-6.5,2.6-9.2,4.5c-1.9-1.7-4.3-3.1-7.3-4.3c-3-1.2-6.8-1.8-11.6-1.8c-2.4,0-4.9,0.1-7.4,0.3c-2.5,0.2-4.9,0.5-7.3,0.9
	c-2.4,0.4-4.6,0.8-6.8,1.3c-2.1,0.4-4,0.9-5.6,1.3v63.5h18.6v-50.7c1.2-0.2,2.4-0.3,3.6-0.4c1.3-0.1,2.5-0.2,3.6-0.2
	c3.8,0,6.4,1.3,7.9,3.8c1.5,2.5,2.3,6.7,2.3,12.7V358.4z M379.1,292.7h-18.6v50.7c-1.2,0.2-2.5,0.3-4,0.4c-1.5,0.1-2.9,0.2-4.2,0.2
	c-4.3,0-7.3-1.3-8.9-4c-1.6-2.7-2.4-7-2.4-13v-34.4h-18.6v36.6c0,4.5,0.4,8.6,1.4,12.4c0.9,3.8,2.5,7,4.6,9.7
	c2.2,2.7,5.1,4.8,8.8,6.3c3.7,1.5,8.4,2.3,13.9,2.3c5.5,0,10.7-0.4,15.7-1.2c5-0.8,9.1-1.7,12.2-2.6V292.7z M315.5,293.8
	c-1-0.4-2.2-0.8-3.6-1.1c-1.4-0.3-2.8-0.5-4.2-0.8c-1.4-0.2-2.8-0.4-4.3-0.5c-1.4-0.1-2.6-0.2-3.6-0.2c-5.6,0-10.6,0.5-15.2,1.6
	c-4.5,1-8.5,2.1-11.8,3.3v62.2h18.6v-50.2c0.8-0.3,2.1-0.5,3.7-0.7c1.6-0.2,3-0.3,4.2-0.3c2.6,0,5,0.2,7.3,0.7
	c2.2,0.5,4.2,0.9,5.9,1.3L315.5,293.8z"/>
<rect x="26.2" y="226.9" class="st0" width="197.3" height="197.3"/>
<path class="st1" d="M156.5,378.3l-22,8l19,18L156.5,378.3z M64.1,335.2l-18,19l26,3L64.1,335.2z M93.2,272.8l22-8l-19-18
	L93.2,272.8z M156.7,340.5c-8.2,17.6-29.1,25.2-46.8,17c-17.6-8.2-25.2-29.1-17-46.8c8.2-17.6,29.1-25.2,46.8-17
	C157.3,301.9,165,322.9,156.7,340.5 M163.8,311.4l0.7-70.8l-53.8,46l-70.8-0.7l46,53.8l-0.7,70.8l53.8-46l70.8,0.7L163.8,311.4z
	 M185.6,315.9l18-19l-26-3L185.6,315.9z"/>
</svg>
